<svg xmlns="http://www.w3.org/2000/svg" xmlns:xlink="http://www.w3.org/1999/xlink" width="953" zoomAndPan="magnify" viewBox="0 0 714.75 196.499994" height="262" preserveAspectRatio="xMidYMid meet" version="1.0"><path fill="#f7bfd9" d="M 3.949219 2.492188 L 13.21875 11.4375 L 22.484375 20.382812 L 13.21875 29.324219 L 3.949219 38.269531 L 13.21875 47.214844 L 22.484375 56.160156 L 13.21875 65.105469 L 3.949219 74.046875 L 13.21875 82.992188 L 22.484375 91.9375 L 13.21875 100.882812 L 3.949219 109.824219 L 13.21875 118.769531 L 22.484375 127.714844 L 13.21875 136.660156 L 3.949219 145.601562 L 13.21875 154.546875 L 22.484375 163.492188 L 13.21875 172.4375 L 3.949219 181.378906 L 710.203125 181.378906 L 700.9375 172.4375 L 691.671875 163.492188 L 710.203125 145.601562 L 700.9375 136.660156 L 691.671875 127.714844 L 700.9375 118.769531 L 710.207031 109.824219 L 700.9375 100.882812 L 691.671875 91.9375 L 700.9375 82.992188 L 710.207031 74.046875 L 700.9375 65.105469 L 691.671875 56.160156 L 700.9375 47.214844 L 710.207031 38.269531 L 700.9375 29.324219 L 691.671875 20.382812 L 700.9375 11.4375 L 710.207031 2.492188 Z M 3.949219 2.492188 " fill-opacity="1" fill-rule="nonzero"/><path fill="#231f20" d="M 710.203125 183.875 L 3.949219 183.875 C 2.933594 183.875 2.019531 183.261719 1.636719 182.316406 C 1.257812 181.375 1.488281 180.292969 2.21875 179.589844 L 18.898438 163.492188 L 2.21875 147.398438 C 1.730469 146.925781 1.457031 146.28125 1.457031 145.601562 C 1.457031 144.925781 1.730469 144.28125 2.21875 143.808594 L 18.898438 127.714844 L 2.21875 111.621094 C 1.730469 111.152344 1.457031 110.503906 1.457031 109.828125 C 1.457031 109.152344 1.730469 108.503906 2.21875 108.03125 L 18.898438 91.9375 L 2.21875 75.84375 C 1.730469 75.371094 1.457031 74.726562 1.457031 74.046875 C 1.457031 73.371094 1.730469 72.722656 2.21875 72.253906 L 18.898438 56.160156 L 2.21875 40.0625 C 1.730469 39.59375 1.457031 38.949219 1.457031 38.269531 C 1.457031 37.59375 1.730469 36.945312 2.21875 36.476562 L 18.898438 20.382812 L 2.21875 4.289062 C 1.488281 3.582031 1.257812 2.5 1.636719 1.558594 C 2.019531 0.617188 2.933594 0 3.949219 0 L 710.203125 0 C 711.21875 0 712.132812 0.617188 712.515625 1.558594 C 712.898438 2.5 712.671875 3.578125 711.9375 4.285156 L 695.265625 20.382812 L 711.9375 36.476562 C 712.421875 36.945312 712.699219 37.59375 712.699219 38.269531 C 712.699219 38.945312 712.425781 39.59375 711.9375 40.0625 L 695.265625 56.160156 L 711.9375 72.253906 C 712.421875 72.722656 712.699219 73.371094 712.699219 74.046875 C 712.699219 74.726562 712.425781 75.371094 711.9375 75.84375 L 695.261719 91.9375 L 711.9375 108.03125 C 712.421875 108.5 712.699219 109.148438 712.699219 109.828125 C 712.699219 110.507812 712.425781 111.152344 711.9375 111.621094 L 695.265625 127.71875 L 711.9375 143.8125 C 712.421875 144.28125 712.699219 144.925781 712.699219 145.605469 C 712.699219 146.285156 712.425781 146.929688 711.9375 147.402344 L 695.261719 163.496094 L 711.9375 179.589844 C 712.671875 180.296875 712.898438 181.375 712.515625 182.320312 C 712.136719 183.261719 711.21875 183.875 710.203125 183.875 Z M 10.121094 178.890625 L 704.03125 178.890625 L 689.941406 165.285156 C 689.453125 164.816406 689.175781 164.171875 689.175781 163.492188 C 689.175781 162.8125 689.453125 162.167969 689.941406 161.695312 L 706.613281 145.601562 L 689.941406 129.507812 C 689.453125 129.039062 689.175781 128.390625 689.175781 127.714844 C 689.175781 127.035156 689.453125 126.390625 689.941406 125.917969 L 706.613281 109.824219 L 689.941406 93.730469 C 689.453125 93.261719 689.175781 92.613281 689.175781 91.933594 C 689.175781 91.257812 689.453125 90.609375 689.941406 90.140625 L 706.613281 74.046875 L 689.941406 57.953125 C 689.453125 57.484375 689.175781 56.835938 689.175781 56.15625 C 689.175781 55.480469 689.453125 54.832031 689.941406 54.363281 L 706.613281 38.265625 L 689.941406 22.171875 C 689.453125 21.703125 689.175781 21.054688 689.175781 20.375 C 689.175781 19.699219 689.453125 19.054688 689.941406 18.582031 L 704.035156 4.984375 L 10.121094 4.984375 L 24.214844 18.589844 C 24.703125 19.058594 24.980469 19.707031 24.980469 20.382812 C 24.980469 21.0625 24.703125 21.707031 24.214844 22.179688 L 7.539062 38.273438 L 24.214844 54.371094 C 24.703125 54.839844 24.980469 55.484375 24.980469 56.164062 C 24.980469 56.84375 24.703125 57.488281 24.214844 57.960938 L 7.539062 74.054688 L 24.214844 90.148438 C 24.703125 90.617188 24.980469 91.265625 24.980469 91.941406 C 24.980469 92.621094 24.703125 93.265625 24.214844 93.738281 L 7.539062 109.832031 L 24.214844 125.925781 C 24.703125 126.394531 24.980469 127.042969 24.980469 127.722656 C 24.980469 128.398438 24.703125 129.046875 24.214844 129.515625 L 7.539062 145.609375 L 24.214844 161.703125 C 24.703125 162.171875 24.980469 162.820312 24.980469 163.5 C 24.980469 164.175781 24.703125 164.824219 24.214844 165.292969 Z M 10.121094 178.890625 " fill-opacity="1" fill-rule="nonzero"/></svg>
